<svg width="239" height="44" viewBox="0 0 239 44" fill="none" xmlns="http://www.w3.org/2000/svg">
<path d="M82.3068 9.75323H70.7119V30.1674H82.3068V9.75323Z" fill="#FF5F00"/>
<path d="M71.4116 20.0091C71.4116 16.0044 73.3108 12.2928 76.5094 9.75321C70.7119 5.35781 62.4155 6.33458 57.8175 11.9021C53.3195 17.5673 54.319 25.6743 60.0166 30.1674C64.8145 33.8791 71.6115 33.8791 76.4094 30.1674C73.3108 27.7255 71.4116 24.0138 71.4116 20.0091Z" fill="#EB001B"/>
<path d="M97.9999 20.0091C97.9999 27.1395 92.1025 33 84.7057 33C81.707 33 78.8083 32.0232 76.5093 30.2651C82.3068 25.8697 83.3063 17.665 78.7083 12.0975C78.0086 11.3161 77.3089 10.5346 76.5093 9.94858C82.3068 5.55318 90.6031 6.52995 95.1012 12.0975C97.0003 14.2463 97.9999 17.0789 97.9999 20.0091Z" fill="#F79E1B"/>
<path d="M119.613 20.5325C120.354 20.5325 120.952 20.76 121.407 21.215C121.866 21.6657 122.096 22.2572 122.096 22.9895V27H120.406V23.5355C120.406 23.0805 120.297 22.7317 120.081 22.489C119.868 22.2463 119.567 22.125 119.177 22.125C118.791 22.125 118.473 22.2485 118.222 22.4955C117.97 22.7382 117.845 23.0892 117.845 23.5485V27H116.148V23.5355C116.148 23.0805 116.042 22.7317 115.83 22.489C115.617 22.2463 115.314 22.125 114.92 22.125C114.534 22.125 114.215 22.2485 113.964 22.4955C113.713 22.7382 113.587 23.0892 113.587 23.5485V27H111.891V20.7015H113.542V21.4425C113.949 20.8358 114.566 20.5325 115.394 20.5325C115.849 20.5325 116.256 20.6278 116.616 20.8185C116.976 21.0048 117.262 21.2692 117.474 21.6115C117.907 20.8922 118.62 20.5325 119.613 20.5325ZM130.025 27H128.368V26.3045C127.904 26.8765 127.276 27.1625 126.483 27.1625C125.612 27.1625 124.886 26.8462 124.305 26.2135C123.724 25.5808 123.434 24.7922 123.434 23.8475C123.434 22.9028 123.724 22.1142 124.305 21.4815C124.886 20.8488 125.612 20.5325 126.483 20.5325C127.28 20.5325 127.908 20.8207 128.368 21.397V20.7015H130.025V27ZM126.795 22.112C126.309 22.112 125.917 22.2788 125.618 22.6125C125.319 22.9418 125.17 23.3535 125.17 23.8475C125.17 24.3415 125.319 24.7553 125.618 25.089C125.917 25.4183 126.309 25.583 126.795 25.583C127.276 25.583 127.666 25.4205 127.965 25.0955C128.268 24.7662 128.42 24.3502 128.42 23.8475C128.42 23.3448 128.268 22.931 127.965 22.606C127.666 22.2767 127.276 22.112 126.795 22.112ZM136.327 22.4565C135.616 22.1142 134.947 21.943 134.318 21.943C134.002 21.943 133.762 21.995 133.597 22.099C133.432 22.1987 133.35 22.3373 133.35 22.515C133.35 22.606 133.374 22.6818 133.421 22.7425C133.469 22.8032 133.547 22.853 133.655 22.892C133.764 22.931 133.868 22.9613 133.967 22.983C134.067 23.0047 134.204 23.0285 134.377 23.0545L134.936 23.139C136.353 23.3557 137.061 23.984 137.061 25.024C137.061 25.6783 136.806 26.1983 136.294 26.584C135.783 26.9697 135.075 27.1625 134.169 27.1625C133.008 27.1625 132.074 26.9155 131.367 26.4215L132.037 25.1345C132.652 25.5462 133.367 25.752 134.182 25.752C134.958 25.752 135.345 25.5548 135.345 25.1605C135.345 25.0088 135.263 24.8875 135.098 24.7965C134.934 24.7055 134.667 24.634 134.299 24.582L133.785 24.5105C132.334 24.3068 131.608 23.6698 131.608 22.5995C131.608 21.9538 131.842 21.449 132.31 21.085C132.782 20.721 133.434 20.539 134.266 20.539C135.228 20.539 136.106 20.7383 136.899 21.137L136.327 22.4565ZM142.917 22.2095H140.636V24.5105C140.636 24.8788 140.722 25.1497 140.896 25.323C141.069 25.4963 141.296 25.583 141.578 25.583C141.916 25.583 142.31 25.4465 142.761 25.1735L143.385 26.4995C142.748 26.9415 142.053 27.1625 141.299 27.1625C140.519 27.1625 139.929 26.9502 139.531 26.5255C139.136 26.0965 138.939 25.4703 138.939 24.647V22.2095H137.724V20.7015H138.939V18.8295H140.636V20.7015H142.917V22.2095ZM147.135 20.5325C148.04 20.5325 148.777 20.8402 149.345 21.4555C149.912 22.0665 150.196 22.8617 150.196 23.841C150.196 24.0577 150.185 24.2483 150.164 24.413H145.698C145.781 24.8507 145.965 25.1778 146.251 25.3945C146.541 25.6112 146.896 25.7195 147.317 25.7195C147.902 25.7195 148.433 25.518 148.909 25.115L149.904 26.207C149.202 26.844 148.307 27.1625 147.219 27.1625C146.253 27.1625 145.466 26.8592 144.86 26.2525C144.253 25.6458 143.95 24.8507 143.95 23.867C143.95 22.879 144.244 22.0773 144.834 21.462C145.423 20.8423 146.19 20.5325 147.135 20.5325ZM147.122 21.995C146.727 21.995 146.411 22.1055 146.173 22.3265C145.939 22.5432 145.783 22.853 145.705 23.256H148.493C148.415 22.8487 148.259 22.5367 148.025 22.32C147.791 22.1033 147.49 21.995 147.122 21.995ZM154.995 20.5325C155.333 20.5325 155.628 20.578 155.879 20.669L155.626 22.3525C155.322 22.2182 154.98 22.151 154.599 22.151C154.196 22.151 153.873 22.2745 153.63 22.5215C153.392 22.7642 153.273 23.113 153.273 23.568V27H151.576V20.7015H153.221V21.3905C153.602 20.8185 154.193 20.5325 154.995 20.5325ZM159.783 20.5325C160.312 20.5325 160.791 20.6365 161.22 20.8445C161.653 21.0482 162.015 21.3407 162.305 21.722L161.083 22.7425C160.689 22.3222 160.24 22.112 159.738 22.112C159.291 22.112 158.917 22.2723 158.613 22.593C158.31 22.9137 158.158 23.3318 158.158 23.8475C158.158 24.3632 158.308 24.7813 158.607 25.102C158.91 25.4227 159.285 25.583 159.731 25.583C160.251 25.583 160.708 25.3707 161.103 24.946L162.312 25.9795C161.692 26.7682 160.849 27.1625 159.783 27.1625C158.787 27.1625 157.978 26.8505 157.359 26.2265C156.739 25.6025 156.429 24.8095 156.429 23.8475C156.429 22.8855 156.739 22.0925 157.359 21.4685C157.978 20.8445 158.787 20.5325 159.783 20.5325ZM169.609 27H167.952V26.3045C167.488 26.8765 166.86 27.1625 166.067 27.1625C165.196 27.1625 164.47 26.8462 163.889 26.2135C163.308 25.5808 163.018 24.7922 163.018 23.8475C163.018 22.9028 163.308 22.1142 163.889 21.4815C164.47 20.8488 165.196 20.5325 166.067 20.5325C166.864 20.5325 167.492 20.8207 167.952 21.397V20.7015H169.609V27ZM166.379 22.112C165.893 22.112 165.501 22.2788 165.202 22.6125C164.903 22.9418 164.754 23.3535 164.754 23.8475C164.754 24.3415 164.903 24.7553 165.202 25.089C165.501 25.4183 165.893 25.583 166.379 25.583C166.86 25.583 167.25 25.4205 167.549 25.0955C167.852 24.7662 168.004 24.3502 168.004 23.8475C168.004 23.3448 167.852 22.931 167.549 22.606C167.25 22.2767 166.86 22.112 166.379 22.112ZM174.812 20.5325C175.15 20.5325 175.445 20.578 175.696 20.669L175.443 22.3525C175.14 22.2182 174.797 22.151 174.416 22.151C174.013 22.151 173.69 22.2745 173.447 22.5215C173.209 22.7642 173.09 23.113 173.09 23.568V27H171.393V20.7015H173.038V21.3905C173.419 20.8185 174.011 20.5325 174.812 20.5325ZM179.295 20.5325C180.066 20.5325 180.684 20.8077 181.148 21.358V17.64H182.838V27H181.18V26.3045C180.716 26.8765 180.088 27.1625 179.295 27.1625C178.424 27.1625 177.698 26.8462 177.118 26.2135C176.537 25.5808 176.247 24.7922 176.247 23.8475C176.247 22.9028 176.537 22.1142 177.118 21.4815C177.698 20.8488 178.424 20.5325 179.295 20.5325ZM179.607 22.112C179.122 22.112 178.73 22.2788 178.431 22.6125C178.132 22.9418 177.982 23.3535 177.982 23.8475C177.982 24.3415 178.132 24.7553 178.431 25.089C178.73 25.4183 179.122 25.583 179.607 25.583C180.088 25.583 180.478 25.4205 180.777 25.0955C181.08 24.7662 181.232 24.3502 181.232 23.8475C181.232 23.3448 181.08 22.931 180.777 22.606C180.478 22.2767 180.088 22.112 179.607 22.112Z" fill="black"/>
</svg>
